<svg xmlns="http://www.w3.org/2000/svg" width="69" height="52" viewBox="0 0 69 52" fill="none"><path d="M57.8118 51.2105L62.8652 26.9544H51.9684C52.8116 22.4379 54.2054 18.9738 56.1528 16.5577C58.1015 14.1417 61.3907 12.5141 66.0233 11.6751L68.3915 0.648438C63.2328 0.858885 58.89 1.69794 55.3643 3.16834C51.8372 4.63874 48.9156 6.55463 46.5993 8.91738C44.2764 11.2906 42.4039 14.066 41.073 17.1084C39.6833 20.2721 38.6249 23.5713 37.9149 26.953L32.8614 51.2105H57.8118ZM25.0148 51.2105L30.0682 26.9544H19.1714C20.0146 22.4379 21.4085 18.9738 23.3558 16.5577C25.3045 14.1417 28.5937 12.5141 33.2263 11.6751L35.5945 0.648438C30.4358 0.858885 26.093 1.69794 22.5673 3.16834C19.0402 4.63874 16.1186 6.55463 13.8023 8.91738C11.4794 11.2906 9.60694 14.066 8.276 17.1084C6.88629 20.2721 5.82795 23.5713 5.11792 26.953L0.0644531 51.2105H25.0148Z" fill="#E4E4E4"></path></svg>